<svg width="536" height="231" viewBox="0 0 536 231" fill="none" xmlns="http://www.w3.org/2000/svg">
<path d="M163.417 149.2C163.398 170.608 155.353 191.133 141.047 206.271C126.741 221.409 107.344 229.922 87.1132 229.943H55.5999V191.528H87.1132C97.7187 191.516 107.887 187.052 115.386 179.117C122.885 171.182 127.103 160.422 127.114 149.2C127.11 137.015 122.733 125.288 114.867 116.389C107.001 107.491 96.2347 102.087 84.7461 101.271C73.2576 100.454 61.9049 104.286 52.9854 111.992C44.0659 119.697 38.2456 130.701 36.7025 142.775V229.72H36.2928V230.165H-3.05176e-05V149.2C-3.05176e-05 146.287 0.136528 143.397 0.399139 140.552V0.151886H36.7025V77.0712C49.014 68.4579 63.3011 63.5358 78.045 62.8282C92.7889 62.1206 107.438 65.6539 120.436 73.0525C133.434 80.4511 144.294 91.4384 151.863 104.846C159.431 118.255 163.424 133.582 163.417 149.2Z" fill="#6F6EFF"/>
<path d="M349.472 62.3916V143.134C349.472 166.066 340.863 188.059 325.538 204.275C310.214 220.491 289.43 229.6 267.758 229.6C246.086 229.6 225.301 220.491 209.977 204.275C194.653 188.059 186.044 166.066 186.044 143.134V62.3916H222.368V143.134C222.368 155.878 227.152 168.1 235.668 177.112C244.185 186.123 255.735 191.186 267.779 191.186C279.822 191.186 291.373 186.123 299.889 177.112C308.405 168.1 313.189 155.878 313.189 143.134V62.3916H349.472Z" fill="#6F6EFF"/>
<path d="M536 149.047V230.012H499.707V229.567H499.298V142.622C497.754 130.548 491.934 119.545 483.015 111.839C474.095 104.134 462.742 100.302 451.254 101.118C439.765 101.935 428.999 107.339 421.133 116.237C413.267 125.135 408.889 136.863 408.886 149.047C408.897 160.269 413.115 171.029 420.614 178.964C428.113 186.9 438.281 191.363 448.887 191.375H480.4V229.79H448.887C428.656 229.769 409.259 221.256 394.953 206.118C380.647 190.98 372.602 170.455 372.583 149.047C372.576 133.429 376.569 118.102 384.137 104.694C391.706 91.286 402.566 80.2987 415.564 72.9002C428.562 65.5016 443.211 61.9683 457.955 62.6759C472.699 63.3835 486.986 68.3056 499.298 76.9189V0H535.59V140.399C535.865 143.273 536.001 146.159 536 149.047Z" fill="#6F6EFF"/>
</svg>
